<?xml version="1.0" encoding="UTF-8" standalone="no"?>
<!DOCTYPE svg PUBLIC "-//W3C//DTD SVG 1.1//EN" "http://www.w3.org/Graphics/SVG/1.1/DTD/svg11.dtd">
<svg width="100%" height="100%" viewBox="0 0 1080 500" version="1.1" xmlns="http://www.w3.org/2000/svg" xmlns:xlink="http://www.w3.org/1999/xlink" xml:space="preserve" xmlns:serif="http://www.serif.com/" style="fill-rule:evenodd;clip-rule:evenodd;stroke-linejoin:round;stroke-miterlimit:2;">
    <g id="Background" transform="matrix(1.054688,0,0,1.054688,0,-290)">
        <path d="M330.5,404.898C399.167,404.85 467.834,404.803 536.5,404.755C726.887,404.412 727.843,404.914 728.05,403.491C728.245,402.155 709.725,369.672 708.069,366.767C704.582,360.652 683.922,361.617 684.741,351.518C685.815,338.269 704.469,349.998 731.441,345.146C773.716,337.541 787.305,312.469 798.233,322.78C814.684,338.303 767.683,353.662 765.558,355.564C763.037,357.82 760.324,366.848 760.235,367.454C759.774,370.612 760.267,370.945 786.652,397.343C793.435,404.128 810.726,390.667 816.371,393.75C820.039,395.754 857.699,432.363 861.225,435.791C868.767,443.123 877.237,447.955 867.312,452.03C854.437,457.317 852.515,459.788 846.796,454.204C838.556,446.158 837.794,447.191 826.418,444.932C824.21,444.494 818.937,443.446 798.54,448.667C791.902,450.366 792.847,458.995 795.876,463.212C799.154,467.775 799.753,468.771 795.638,472.644C792.122,475.953 794.163,486.214 795.666,488.385C801.22,496.408 805.507,491.837 815.622,488.943C820.509,487.545 822.64,491.151 831.619,499.369C839.846,506.899 841.338,502.944 850.784,496.967C859.078,491.72 859.912,491.692 868.7,496.091C885.087,504.293 886.654,502.527 891.152,509.714C895.554,516.749 903.029,513.099 918.457,514.802C924.08,515.423 928.057,524.489 926.803,527.625C922.155,539.25 917.076,536.917 902.496,537.174C894.578,537.314 893.76,536.829 889.218,543.295C887.847,545.246 887.523,545.707 862.537,556.587C857.354,558.844 855.601,556.338 844.217,548.929C834.79,542.795 834.058,547.497 820.178,559.068C817.168,561.577 810.574,558.202 803.385,555.85C792.884,552.414 789.735,571.723 794.851,576.099C801.844,582.081 791.885,583.412 791.866,590.511C791.847,597.811 792.73,598.602 798.602,600.02C816.381,604.316 816.565,605.9 834.431,602.142C846.119,599.684 843.711,588.932 854.565,593.352C865.776,597.917 874.005,600.291 867.374,606.368C863.16,610.231 838.276,633.038 814.123,654.032C809.784,657.804 795.81,649.556 788.516,648.377C785.316,647.86 784.776,648.15 757.874,674.872C754.279,678.444 756.903,683.57 758.766,688.394C761.523,695.534 770.987,693.719 790.143,707.955C803.425,717.825 792.359,733.673 778.764,725.075C742.993,702.452 728.374,696.919 689.503,700.534C688.557,700.622 679.691,701.446 679.946,693.482C680.333,681.396 698.32,688.133 704.921,676.741C723.587,644.524 725.158,643.676 723.349,642.949C722.434,642.582 170.563,642.82 122.495,642.84C117.907,642.842 120.277,638.148 122.383,630.469C126.131,616.805 165.772,472.251 168.795,459.554C169.461,456.761 163.895,448.171 157.735,435.385C147.189,413.495 142.588,406.699 143.556,405.547C144.487,404.439 144.826,405.078 330.5,404.898Z"/>
        <path d="M297.494,620.093C196.894,620.801 152.669,620.996 152.158,619.693C151.497,618.005 181.709,507.885 189.985,475.629C191.871,468.275 194.488,461.256 193.262,458.605C178.547,426.798 175.045,423.966 179.511,423.883C193.428,423.622 193.42,424.023 353.5,423.884C377.956,423.863 433.472,425.856 416.022,483.361C409.492,504.877 389.559,516.908 390.958,519.192C392.915,522.385 411.873,530.308 405.665,562.533C403.067,576.022 391.469,604.996 365.55,614.629C354.127,618.874 349.355,619.308 297.494,620.093Z" style="fill:white;"/>
        <path d="M440.5,620.884C397.819,620.884 394.668,620.863 392.419,621C388.666,621.228 390.095,619.423 390.285,619.316C414.505,605.663 420.901,592.375 442.003,470.414C442.661,466.609 447.588,438.131 422.726,426.154C417.222,423.503 426.15,424.048 426.494,424.069C427.701,424.143 489.682,424.093 498.5,424.106C504.061,424.114 506.945,423.149 505.761,428.562C504.729,433.283 498.913,459.888 492.974,487.596C475.304,570.037 474.527,571.63 475.495,572.505C476.404,573.327 552.425,572.695 558.484,572.865C562.417,572.975 558.805,581.571 558.802,581.581C550.294,613.873 548.814,619.515 548.121,620.083C546.494,621.417 476.583,620.117 440.5,620.884Z" style="fill:white;"/>
        <path d="M514.867,546.531C515.844,540.061 515.782,540.119 515.896,539.568C525.328,494.094 539.075,471.278 561.097,453.012C601.828,419.227 628.224,423.261 686.5,423.261C765.035,423.261 765.715,423.081 766.204,424.531C766.554,425.565 756.414,462.238 755.511,465.503C753.867,471.45 751.749,469.9 738.5,469.9C627.754,469.9 627.441,469.417 616.422,473.285C580.719,485.818 575.301,524.898 573.868,531.572C569.429,552.244 579.11,556.663 573.551,556.844C546.188,557.735 521.031,556.944 516.467,556.8C512.933,556.689 514.846,546.854 514.867,546.531Z" style="fill:white;"/>
        <path d="M575.524,620.078C569.091,619.201 569.126,619.239 568.576,619.131C564.416,618.308 567.225,616.035 580.049,567.377C581.818,560.664 585.46,571.634 600.517,573.332C612.558,574.689 670.433,573.876 676.512,573.791C678.738,573.76 679.529,573.266 685.742,547.545C686.254,545.424 685.692,545.129 683.522,545.103C650.68,544.722 649.311,545.795 649.214,543.508C649.184,542.812 660.174,502.444 660.441,501.483C661.47,497.776 663.726,498.712 678.5,498.712C745.143,498.712 745.626,498.575 746.033,499.622C746.382,500.521 725.852,575.423 722.948,586.622C721.031,594.016 736.353,615.955 735.694,619.569C735.529,620.475 730.921,620.463 730.5,620.461C669.67,620.304 593.325,620.869 575.524,620.078Z" style="fill:white;"/>
        <path d="M347.543,566.542C338.611,574.766 337.404,573.707 297.5,573.707C226.046,573.707 225.359,573.863 225.112,572.633C225.022,572.19 231.377,545.897 232.819,544.973C233.52,544.524 233.589,544.536 332.5,544.542C336.119,544.543 350.063,542.45 352.12,553.559C353.377,560.349 348.298,565.741 347.543,566.542Z"/>
        <path d="M255.499,472.286C349.758,472.552 349.896,471.759 354.539,473.408C364.599,476.981 359.738,496.469 344.483,498.357C336.783,499.309 336.769,498.785 247.496,498.59C243.57,498.581 246.335,492.374 249.05,482.382C250.635,476.549 249.45,472.934 255.499,472.286Z"/>
    </g>
</svg>
